<svg version="1.1" id="Layer_2" xmlns="http://www.w3.org/2000/svg" x="0" y="0" viewBox="0 0 80.3 80.3" style="enable-background:new 0 0 80.3 80.3" xml:space="preserve"><style>.st6{fill:#0c2c48}.st10{fill:#50646f}</style><circle cx="40.2" cy="40.2" r="40.2" style="fill:#6eb9e0"/><path class="st10" d="M67.7 56.2c0 .7-.5 1.2-1.2 1.2H13.8c-.7 0-1.2-.5-1.2-1.2V17.4c0-.7.5-1.2 1.2-1.2h52.8c.7 0 1.2.5 1.2 1.2v38.8z"/><path style="fill:#3b4a52" d="M29.8 56.3h20.7v7H29.8z"/><path style="fill:#a3b9c4" d="M15.5 18.6h49.3v30.5H15.5z"/><path class="st10" d="M12.6 48.1v8.1c0 .7.5 1.2 1.2 1.2h52.8c.7 0 1.2-.5 1.2-1.2v-8.1H12.6zM55.7 68.1v-2.2c0-1.7-1.3-3-3-3h-25c-1.7 0-3 1.3-3 3v2.2h31z"/><circle class="st6" cx="40.2" cy="52.5" r="1.5"/><path class="st6" d="M48.1 30.5c1.2-.4 2.3-.7 3.5-1.1-.3-.2-.5-.4-.8-.6 0 1.3 0 2.6.1 3.9 0 .8 1.2.7 1.2-.1 0-1.3 0-2.6-.1-3.9 0-.4-.4-.7-.8-.6-1.2.4-2.3.7-3.5 1.1-.7.4-.3 1.6.4 1.3zM36.4 38.3l-3 3M36 37.9l-3 3c-.5.5.3 1.2.7.7l3-3c.5-.4-.2-1.1-.7-.7z"/><g><path class="st6" d="m33.3 38.2 3.1 3.2M32.9 38.6l3.2 3.2c.5.5 1.2-.3.7-.7l-3.2-3.2c-.4-.5-1.1.2-.7.7z"/></g><g><path class="st6" d="m31.1 30.3-3 3M30.8 29.9l-3 3c-.5.5.3 1.2.7.7l3-3c.4-.4-.3-1.1-.7-.7z"/><g><path class="st6" d="m28 30.2 3.2 3.2M27.7 30.6l3.2 3.2c.5.5 1.2-.3.7-.7l-3.2-3.2c-.5-.5-1.2.2-.7.7z"/></g></g><g><path class="st6" d="m43.1 28.7-3 3M42.8 28.4l-3 3c-.5.5.3 1.2.7.7l3-3c.4-.5-.3-1.2-.7-.7z"/><g><path class="st6" d="m40 28.7 3.2 3.1M39.7 29l3.2 3.2c.5.5 1.2-.3.7-.7l-3.2-3.2c-.5-.5-1.2.3-.7.7z"/></g></g><g><path d="M54.5 28.6c-1.9 0-3.4-1.5-3.4-3.4s1.5-3.4 3.4-3.4 3.4 1.5 3.4 3.4c0 1.8-1.5 3.4-3.4 3.4zm0-5.9c-1.3 0-2.4 1.1-2.4 2.4 0 1.3 1.1 2.4 2.4 2.4 1.3 0 2.4-1.1 2.4-2.4 0-1.3-1.1-2.4-2.4-2.4z" style="fill:#ed6b5a"/></g><g><path class="st6" d="M24.6 47.1c-1.4 0-2.6-1.2-2.6-2.6 0-1.4 1.2-2.6 2.6-2.6 1.4 0 2.6 1.2 2.6 2.6 0 1.4-1.2 2.6-2.6 2.6zm0-4.3c-.9 0-1.6.7-1.6 1.6s.7 1.6 1.6 1.6 1.6-.7 1.6-1.6-.7-1.6-1.6-1.6z"/></g><g><path class="st6" d="M26.4 43.2c2.5-5.5 6.5-8.4 12.6-8.5 4.8 0 9.9-.3 12.6-4.9.3-.6-.5-1.1-.9-.5C47.4 35 40.5 33 35 34.1c-4.6.9-7.6 4.5-9.5 8.6-.2.5.6 1 .9.5z"/></g></svg>